<svg width="512" height="512" viewBox="0 0 512 512" fill="none" xmlns="http://www.w3.org/2000/svg">
<rect width="512" height="512" rx="256" fill="#BB0303"/>
<path d="M406 156H331V131C331 124.37 327.839 118.011 322.213 113.322C316.587 108.634 308.956 106 301 106H211C203.044 106 195.413 108.634 189.787 113.322C184.161 118.011 181 124.37 181 131V156H106V181H136V368.5C136 378.446 140.741 387.984 149.18 395.017C157.619 402.049 169.065 406 181 406H331C342.935 406 354.381 402.049 362.82 395.017C371.259 387.984 376 378.446 376 368.5V181H406V156ZM211 131H301V156H211V131ZM346 368.5C346 371.815 344.42 374.995 341.607 377.339C338.794 379.683 334.978 381 331 381H181C177.022 381 173.206 379.683 170.393 377.339C167.58 374.995 166 371.815 166 368.5V181H346V368.5Z" fill="black"/>
<path d="M241 230.999H211V330.999H241V230.999Z" fill="black"/>
<path d="M301 230.999H271V330.999H301V230.999Z" fill="black"/>
</svg>
